<svg width="439" height="177" viewBox="0 0 439 177" fill="none" xmlns="http://www.w3.org/2000/svg">
<g clip-path="url(#clip0_147_29)">
<g clip-path="url(#clip1_147_29)">
<path d="M429.314 105.761C423.757 117.108 416.797 121.359 413.668 123.022C408.698 125.681 403.419 127.714 397.95 129.076C393.938 130.14 389.807 130.994 385.638 131.734C381.464 132.469 377.285 133.122 373.024 133.72C364.525 134.903 355.919 135.761 347.543 136.325C328.261 137.635 308.946 137.825 289.723 137.221C270.499 136.612 251.366 135.341 232.281 134.141L217.975 133.26C213.222 132.985 208.377 132.683 203.595 132.302C194.006 131.549 184.453 130.571 174.929 129.498L167.853 128.699L160.781 128.128C156.029 127.511 151.175 127.978 146.323 128.039L146.21 128.042L146.153 128.043C146.145 127.932 146.1 128.196 146.083 128.166L145.858 128.145L145.407 128.104C145.107 128.071 144.806 128.054 144.504 128.041L142.692 127.949L139.06 127.735L139.021 127.732C136.608 127.572 134.179 127.41 131.737 127.151L131.672 127.144L131.806 127.456C132.896 130.001 133.988 132.554 135.083 135.114L141.606 150.491C141.759 150.85 141.879 151.222 141.964 151.603L141.975 151.656C142.212 152.725 142.342 153.815 142.361 154.909C142.369 155.524 142.338 156.138 142.266 156.748C142.195 157.383 142.068 158.01 141.888 158.622C141.555 159.928 141.013 161.171 140.283 162.304C139.497 163.519 138.497 164.582 137.331 165.44C135.354 166.853 133.046 167.732 130.63 167.991C128.8 168.204 126.949 168.172 125.127 167.896C123.51 167.663 121.915 167.296 120.358 166.798L119.236 166.415L118.325 166.056L116.507 165.335L112.898 163.888C112.301 163.642 111.699 163.412 111.112 163.153L109.371 162.34L103.594 159.638L97.9561 156.692C96.0583 155.744 94.2469 154.653 92.4131 153.602C90.59 152.534 88.7273 151.528 86.9635 150.375L81.61 147.013L76.3857 143.48C74.639 142.309 72.9316 141.095 71.2301 139.869C69.5344 138.638 67.7933 137.461 66.1454 136.176C52.7417 126.134 40.1814 115.193 27.9464 104.047C24.8964 101.254 21.863 98.4423 18.8762 95.5993L9.77817 86.9531C9.2321 86.4 8.72768 85.8073 8.26904 85.1798C7.80539 84.5033 7.38702 83.7967 7.01666 83.0649L6.7344 82.5334L6.4981 81.927C6.34471 81.5193 6.19972 81.1083 6.06314 80.6939C5.8217 79.8062 5.66892 78.8967 5.607 77.9788C5.52893 76.1391 5.85666 74.3049 6.56693 72.6061C6.71986 72.2151 6.9005 71.8356 7.10749 71.4703C7.30248 71.1147 7.49327 70.725 7.7083 70.4064C8.1175 69.7701 8.56644 69.1603 9.05241 68.5805C10.7872 66.5832 12.8268 64.8725 15.0956 63.5117C17.0683 62.3307 19.1209 61.2886 21.2386 60.393C36.3988 53.4524 52.0033 47.5263 67.9489 42.6538C84.8736 37.5323 102.099 33.4619 119.526 30.4658C122.734 29.8567 126.05 30.1828 129.079 31.4054C130.863 32.1248 132.469 33.2263 133.782 34.6326C135.125 36.1158 136.095 37.898 136.612 39.8311C137.026 41.4046 137.22 43.0279 137.189 44.6547C137.172 45.9693 137.065 47.2812 136.871 48.5816C136.576 50.904 136.155 53.2075 135.668 55.4948C134.29 61.8699 132.2 68.0605 129.445 73.952C140.326 75.3249 151.301 75.8646 162.273 75.5645C183.573 75.0025 204.848 71.4985 225.825 66.5756C246.812 61.596 267.618 55.4141 288.076 48.3537C308.543 41.2804 328.694 33.3257 348.528 24.4895C353.484 22.2922 358.42 20.0471 363.334 17.7544L370.69 14.2805L374.385 12.5113C375.66 11.9028 376.946 11.3175 378.243 10.7555C383.503 8.3821 389 6.57256 394.642 5.35717C397.751 4.68137 400.947 4.49748 404.113 4.81219L405.416 5.00589C406.333 5.2109 407.236 5.47319 408.12 5.79123C408.58 6.00017 409.036 6.21828 409.489 6.44554C409.914 6.64829 410.32 6.88859 410.703 7.16361C411.075 7.40168 411.434 7.66071 411.778 7.93939C412.457 8.47196 413.104 9.04449 413.715 9.65395C417.462 13.5677 419.458 18.0393 421.004 22.3404C422.432 26.5494 423.54 30.8605 424.318 35.2366C425.11 39.4874 425.691 43.6831 426.21 47.8045L426.96 53.9221C427.209 55.924 427.489 57.8043 427.842 59.7656C429.262 67.5486 431.24 75.3628 432.109 83.2082C432.591 87.0906 432.674 91.0119 432.36 94.9113C432.233 95.873 432.153 96.8277 431.981 97.7699C431.777 98.7094 431.61 99.645 431.371 100.559C431.083 101.466 430.814 102.365 430.512 103.246C430.181 104.116 429.781 104.957 429.314 105.761Z" fill="white"/>
</g>
</g>
<defs>
<clipPath id="clip0_147_29">
<rect width="439" height="177" fill="white"/>
</clipPath>
<clipPath id="clip1_147_29">
<rect width="500" height="485.031" fill="white" transform="translate(217.271 419.778) rotate(-129.982)"/>
</clipPath>
</defs>
</svg>
