<svg width="501" height="433" viewBox="0 0 501 433" fill="none" xmlns="http://www.w3.org/2000/svg">
<path fill-rule="evenodd" clip-rule="evenodd" d="M264.5 63.5C137.052 73 89.5 128.368 71.0002 221C60.0002 323.925 122.239 367.109 193.391 390.826C202.341 392.392 212 379.199 212 374.5C212 370.249 205.474 363.976 205.474 348.985C160.5 357.264 148.865 338.021 145.285 327.952C143.271 322.806 134.545 306.92 126.938 302.669C120.673 299.312 111.723 291.034 126.714 290.81C140.81 290.586 150.879 303.787 154.235 309.157C170.345 336.231 201.707 321.199 212 316.5C213.566 304.865 217.354 298.975 222.5 294.5C182.673 290.025 136.335 280.07 136.335 211.602C136.335 192.136 145.061 185.03 156.473 172.5C154.683 168.025 146.628 140.674 156.473 116.061C156.473 116.061 171.464 111.363 205.698 134.409C220.018 130.381 235.233 128.368 250.448 128.368C265.663 128.368 280.878 130.381 295.198 134.409C329.431 111.139 344.423 116.061 344.423 116.061C354.268 140.674 348.003 159.021 346.213 163.496C357.624 176.026 370 197.31 370 217C370 285.691 322.719 295.509 282.891 299.984C289.38 305.577 294.974 316.317 294.974 333.099C294.974 357.04 282.891 371.959 282.891 378C282.891 382.699 298.106 392.616 307.056 390.826C342.591 378.83 373.469 355.992 395.344 325.528C417.22 295.063 428.991 258.505 429 221C429.016 158.5 418.052 70.5 264.5 63.5Z" fill="white"/>
</svg>
