<svg width="501" height="433" viewBox="0 0 501 433" fill="none" xmlns="http://www.w3.org/2000/svg">
<path fill-rule="evenodd" clip-rule="evenodd" d="M413 49.3432C413 45.5101 411.158 41.8855 408.21 39.5636C405.138 37.2416 401.083 36.4802 397.397 37.4999C397.397 37.4999 209.783 86.5134 204.5 88C199.217 89.4866 171 96 167.286 110.772C163.571 125.543 168.5 259.5 167.286 270.486C166.071 281.471 127.883 251.914 114 251.914C80.0914 251.914 55 303.493 55 337.414C55 371.335 102.091 396.914 136 396.914C169.909 396.914 203.5 349.335 203.5 315.414C203.5 313.989 203.623 316.814 203.5 315.414C203.623 314.8 204.5 252.553 204.5 251.914C204.5 251.914 203.5 133.5 210.5 121C217.5 108.5 365 83.5 378 81C391 78.5 372 228 362.5 222C353 216 341.883 210.5 328 210.5C294.091 210.5 270 266.493 270 300.414C270 334.335 326.091 372 360 372C393.909 372 413 316.692 413 282.771C413 279.884 412.754 277.034 412.385 274.245C412.754 273.066 413 271.8 413 270.486V49.3432ZM338.5 251.914C318.106 251.914 317 280.056 317 300.414C317 320.771 342.106 322.5 362.5 322.5C382.894 322.5 384.5 310 378 289.857C371.5 269.715 358.894 251.914 338.5 251.914ZM132.5 295.414C112.106 295.414 100.5 310.056 100.5 330.414C100.5 350.771 110.034 356.485 130.429 356.485C150.823 356.485 175.5 347.771 175.5 327.414C175.5 307.056 152.894 295.414 132.5 295.414Z" fill="white"/>
</svg>
