<svg width="390" height="377" viewBox="0 0 390 377" fill="none" xmlns="http://www.w3.org/2000/svg">
<g clip-path="url(#clip0_134_15)">
<path d="M277.697 355.473C270.206 360.097 262.35 364.103 254.207 367.449L251.134 368.681L247.949 369.814L246.356 370.374L244.75 370.863L241.539 371.836C237.235 372.973 232.919 374.014 228.581 374.729C219.98 376.216 211.281 377.068 202.555 377.279C193.924 377.515 185.287 377.305 176.678 376.652C158.483 375.211 140.448 372.187 122.778 367.615C110.84 364.654 99.2137 360.551 88.0605 355.363L87.8061 355.24C82.5544 352.693 77.0871 350.041 71.772 346.796C66.1684 343.502 61.0262 339.48 56.4801 334.835C51.6056 329.917 47.9181 323.951 45.6983 317.392L44.9704 314.85L44.6161 313.577C44.5172 313.105 44.4346 312.6 44.3487 312.113C44.0533 310.244 43.9261 308.352 43.9687 306.461C44.0926 303.023 44.5745 299.607 45.4066 296.269C46.993 290.004 49.2897 283.94 52.252 278.197C55.1342 272.497 58.5601 267.09 62.482 262.049C66.5309 256.711 71.4055 252.054 76.922 248.253C77.6833 247.776 78.4103 247.279 79.2395 246.85C80.0492 246.385 80.8831 245.964 81.7375 245.587L83.0461 245.01L84.4426 244.513C85.4395 244.161 86.4611 243.882 87.499 243.68C91.6824 242.935 95.9898 243.345 99.9578 244.865C103.301 246.153 106.463 247.867 109.368 249.965C111.992 251.826 114.516 253.823 116.931 255.948C121.635 260.037 125.933 264.197 130.24 268.229C138.809 276.307 147.408 283.911 156.768 290.195C165.941 296.508 176.061 301.32 186.747 304.452C193.292 306.308 200.014 307.471 206.802 307.921C210.204 308.136 213.623 308.24 217.053 308.115C217.909 308.109 218.767 308.053 219.625 308.009C220.477 307.949 221.352 307.953 222.185 307.837L227.23 307.293C228.905 307.106 230.569 306.831 232.216 306.469C233.876 306.206 235.521 305.85 237.142 305.405L241.992 304.073L246.702 302.353C248.272 301.783 249.806 301.123 251.299 300.375C252.832 299.72 254.324 298.971 255.767 298.134C257.203 297.29 258.69 296.528 260.091 295.629L264.22 292.812C269.587 288.825 274.458 284.212 278.731 279.072C282.981 273.852 286.602 268.151 289.52 262.086L290.602 259.797C290.983 259.043 291.323 258.269 291.62 257.479L293.466 252.753C294.001 251.147 294.483 249.522 295 247.909C295.487 246.487 295.863 245.029 296.123 243.549C296.126 243.529 296.129 243.51 296.132 243.491C294.884 243.191 293.62 242.962 292.345 242.805L286.988 242.091C285.143 241.846 283.269 241.588 281.386 241.295L278.557 240.833L277.125 240.581L275.446 240.23C272.923 239.683 270.494 238.773 268.234 237.528C267.561 237.155 266.917 236.732 266.306 236.264L265.35 235.517C265.031 235.222 264.717 234.917 264.409 234.608C263.095 233.286 262.045 231.726 261.313 230.012C260.605 228.32 260.206 226.515 260.137 224.682C260.112 223.867 260.137 223.05 260.21 222.237C260.315 221.507 260.403 220.711 260.571 220.041C261.148 217.578 262.057 215.205 263.273 212.987C264.305 211.067 265.473 209.223 266.769 207.47C268.001 205.781 269.274 204.184 270.588 202.677C275.736 196.877 281.359 191.517 287.399 186.653C293.268 181.846 299.382 177.346 305.717 173.171C308.886 171.082 312.116 169.069 315.454 167.154C318.861 165.172 322.372 163.376 325.972 161.772C327.997 160.87 330.087 160.122 332.225 159.536L333.155 159.306C333.482 159.233 333.85 159.169 334.195 159.105L334.73 159.014L335.351 158.944C335.798 158.889 336.247 158.859 336.697 158.856C337.688 158.843 338.677 158.93 339.65 159.117C340.474 159.29 341.284 159.524 342.074 159.815C344.526 160.763 346.81 162.096 348.84 163.766C350.533 165.122 352.134 166.589 353.633 168.157C356.381 171.057 358.934 174.134 361.278 177.37C363.586 180.508 365.711 183.708 367.732 186.952C371.735 193.417 375.373 200.102 378.628 206.974C382.674 215.345 385.891 224.092 388.234 233.09C389.513 237.905 390.208 242.857 390.305 247.838C390.366 250.891 389.85 253.929 388.785 256.79C388.044 258.698 386.89 260.417 385.406 261.826C383.873 263.236 382.028 264.262 380.022 264.821C378.475 265.247 376.877 265.455 375.272 265.438C373.961 265.412 372.654 265.272 371.366 265.021C369.242 264.595 367.165 263.956 365.168 263.114C362.032 261.79 359.036 260.155 356.226 258.233C352.357 255.645 349.931 253.743 346.809 250.29C346.832 250.332 346.793 250.807 346.8 250.918L346.809 251.359C346.818 251.961 346.813 252.616 346.793 253.323C346.774 254.03 346.739 254.79 346.688 255.603C346.599 256.435 346.486 257.325 346.355 258.268C344.764 269.172 341.591 279.786 336.936 289.774C332.213 299.941 326.31 309.518 319.349 318.305C307.641 332.852 293.569 345.325 277.721 355.202C277.718 355.292 277.71 355.383 277.697 355.473Z" fill="white"/>
<path d="M112.613 21.8997C120.104 17.2751 127.96 13.2695 136.103 9.92299L139.175 8.69118L142.36 7.55827L143.954 6.99828L145.559 6.50926L148.771 5.53636C153.074 4.39996 157.391 3.35847 161.729 2.64387C170.33 1.15661 179.029 0.304334 187.755 0.0938844C196.385 -0.142216 205.022 0.0670579 213.631 0.720957C231.826 2.16169 249.861 5.18516 267.531 9.75706C279.47 12.7189 291.096 16.8218 302.249 22.009L302.504 22.1324C307.755 24.6796 313.223 27.3314 318.538 30.5767C324.141 33.8701 329.284 37.8921 333.83 42.5376C338.704 47.4556 342.392 53.4214 344.611 59.9803L345.339 62.5221L345.694 63.7959C345.793 64.2672 345.875 64.772 345.961 65.2599C346.256 67.1288 346.384 69.0203 346.341 70.9119C346.217 74.3499 345.735 77.7657 344.903 81.1039C343.317 87.3688 341.02 93.4321 338.058 99.176C335.176 104.875 331.75 110.283 327.828 115.324C323.779 120.661 318.904 125.318 313.388 129.12C312.626 129.597 311.899 130.094 311.07 130.522C310.261 130.987 309.427 131.409 308.572 131.785L307.264 132.363L305.867 132.859C304.87 133.212 303.849 133.49 302.811 133.692C298.627 134.437 294.32 134.028 290.352 132.508C287.009 131.219 283.846 129.505 280.942 127.408C278.318 125.547 275.793 123.55 273.378 121.425C268.675 117.336 264.377 113.175 260.07 109.143C251.501 101.066 242.902 93.4613 233.542 87.1777C224.368 80.8646 214.249 76.052 203.562 72.9208C197.018 71.0642 190.296 69.9014 183.508 69.4514C180.105 69.2366 176.687 69.1322 173.257 69.2575C172.401 69.2634 171.543 69.3192 170.685 69.3637C169.832 69.4237 168.958 69.4191 168.125 69.5358L163.08 70.0796C161.405 70.2668 159.741 70.5417 158.094 70.9032C156.434 71.1667 154.789 71.5222 153.168 71.9678L148.318 73.2992L143.607 75.0192C142.038 75.5893 140.504 76.2498 139.011 76.9975C137.477 77.6526 135.985 78.401 134.543 79.2385C133.107 80.0827 131.62 80.8442 130.218 81.7431L126.09 84.561C120.723 88.5474 115.852 93.16 111.578 98.301C107.328 103.52 103.707 109.221 100.79 115.286L99.7079 117.575C99.3269 118.329 98.987 119.103 98.6899 119.894L96.844 124.619C96.3089 126.225 95.8265 127.851 95.3097 129.464C94.8224 130.886 94.447 132.344 94.1869 133.824C94.1838 133.843 94.1807 133.862 94.1777 133.882C95.426 134.181 96.6902 134.41 97.9646 134.568L103.322 135.282C105.166 135.526 107.041 135.785 108.924 136.078L111.753 136.54L113.185 136.792L114.864 137.143C117.386 137.689 119.816 138.599 122.076 139.844C122.749 140.218 123.393 140.64 124.003 141.109L124.959 141.856C125.279 142.151 125.593 142.456 125.901 142.764C127.214 144.087 128.265 145.647 128.997 147.361C129.705 149.052 130.104 150.857 130.173 152.69C130.198 153.506 130.173 154.323 130.099 155.135C129.994 155.865 129.906 156.662 129.739 157.331C129.162 159.794 128.253 162.167 127.037 164.385C126.005 166.305 124.836 168.149 123.541 169.903C122.309 171.591 121.035 173.189 119.722 174.695C114.574 180.496 108.951 185.856 102.911 190.72C97.0416 195.527 90.9274 200.027 84.5928 204.201C81.4236 206.291 78.1934 208.304 74.8556 210.218C71.4492 212.2 67.9381 213.997 64.3377 215.6C62.3129 216.503 60.2225 217.25 58.0844 217.836L57.1544 218.066C56.8275 218.139 56.4602 218.203 56.1144 218.267L55.5802 218.358L54.9584 218.428C54.5119 218.484 54.0627 218.513 53.6128 218.516C52.6222 218.529 51.6328 218.442 50.6597 218.256C49.8358 218.082 49.0255 217.849 48.2354 217.558C45.7839 216.61 43.4998 215.276 41.4699 213.607C39.7766 212.251 38.1753 210.784 36.6765 209.215C33.9291 206.315 31.3754 203.238 29.032 200.003C26.724 196.864 24.5991 193.665 22.5774 190.421C18.5745 183.955 14.937 177.271 11.6821 170.399C7.63593 162.027 4.41846 153.28 2.07568 144.282C0.796721 139.467 0.101469 134.515 0.00488084 129.534C-0.0563682 126.481 0.459318 123.444 1.52487 120.582C2.26562 118.675 3.41958 116.955 4.90387 115.547C6.43649 114.137 8.28146 113.11 10.2875 112.551C11.8343 112.125 13.4331 111.918 15.0375 111.935C16.349 111.961 17.6558 112.1 18.9433 112.352C21.068 112.778 23.1445 113.416 25.1413 114.258C28.2779 115.582 31.2738 117.218 34.0842 119.14C37.9531 121.727 40.379 123.63 43.5006 127.082C43.4773 127.04 43.5163 126.566 43.5099 126.454L43.5006 126.013C43.4916 125.411 43.4969 124.757 43.5165 124.049C43.536 123.342 43.5712 122.582 43.6221 121.77C43.7108 120.937 43.824 120.047 43.9549 119.104C45.5459 108.2 48.7191 97.5867 53.374 87.5988C58.0966 77.4313 63.9996 67.855 70.9612 59.0676C82.6687 44.5204 96.741 32.0472 112.588 22.1707C112.592 22.08 112.6 21.9896 112.613 21.8997Z" fill="white"/>
</g>
<defs>
<clipPath id="clip0_134_15">
<rect width="390" height="377" fill="white"/>
</clipPath>
</defs>
</svg>
